<svg xmlns="http://www.w3.org/2000/svg" viewBox="0 0 64 64" role="img" aria-labelledby="speedDeskLogoTitle speedDeskLogoDescription">
  <title id="speedDeskLogoTitle">Speed Desk</title>
  <desc id="speedDeskLogoDescription">Símbolo de uma rota em forma de S conectando clientes e técnicos.</desc>
  <defs>
    <linearGradient id="speedDeskGradient" x1="9" y1="6" x2="57" y2="59" gradientUnits="userSpaceOnUse">
      <stop stop-color="#9B6CFF"/>
      <stop offset=".52" stop-color="#7C3AED"/>
      <stop offset="1" stop-color="#6D28D9"/>
    </linearGradient>
    <linearGradient id="speedDeskHighlight" x1="12" y1="8" x2="48" y2="45" gradientUnits="userSpaceOnUse">
      <stop stop-color="#FFFFFF" stop-opacity=".22"/>
      <stop offset="1" stop-color="#FFFFFF" stop-opacity="0"/>
    </linearGradient>
  </defs>

  <rect x="3" y="3" width="58" height="58" rx="17" fill="url(#speedDeskGradient)"/>
  <path d="M7 24C13 12 24 7 38 7c7 0 13 2 19 6v6C45 12 31 11 20 17 14 20 10 24 7 29Z" fill="url(#speedDeskHighlight)"/>

  <path d="M17 20.5h24c3.3 0 6 2.5 6 5.5s-2.7 5.5-6 5.5H27c-3.3 0-6 2.7-6 6s2.7 6 6 6h20" fill="none" stroke="#FFFFFF" stroke-width="5.5" stroke-linecap="round" stroke-linejoin="round"/>
  <path d="M11 29h8M11 36h5" fill="none" stroke="#FFFFFF" stroke-width="3.5" stroke-linecap="round" opacity=".7"/>
  <circle cx="17" cy="20.5" r="2.1" fill="#FFFFFF"/>
  <circle cx="47" cy="43.5" r="2.1" fill="#FFFFFF"/>
</svg>
